<?xml version="1.0" standalone="no"?>
<!DOCTYPE svg PUBLIC "-//W3C//DTD SVG 20010904//EN"
 "http://www.w3.org/TR/2001/REC-SVG-20010904/DTD/svg10.dtd">
<svg version="1.0" xmlns="http://www.w3.org/2000/svg"
 width="512.000000pt" height="512.000000pt" viewBox="0 0 512.000000 512.000000"
 preserveAspectRatio="xMidYMid meet">
<metadata>
Created by potrace 1.14, written by Peter Selinger 2001-2017
</metadata>
<g transform="translate(0.000000,512.000000) scale(0.100000,-0.100000)"
fill="#000000" stroke="none">
<path d="M386 5104 c-176 -43 -329 -196 -371 -375 -13 -56 -15 -327 -15 -2169
0 -2316 -4 -2169 61 -2291 40 -74 134 -168 208 -208 122 -65 -25 -61 2291 -61
2316 0 2169 -4 2291 61 74 40 168 134 208 208 65 122 61 -25 61 2291 0 1842
-2 2113 -15 2169 -43 181 -195 333 -376 376 -94 22 -4251 21 -4343 -1z m1028
-1704 c105 -27 185 -72 257 -144 92 -93 134 -190 164 -378 l6 -38 -144 0 -145
0 -16 66 c-31 124 -69 180 -151 222 -61 31 -177 36 -236 10 -87 -38 -145 -115
-189 -253 -31 -98 -41 -440 -16 -567 32 -157 107 -279 203 -328 43 -22 60 -25
163 -25 102 0 120 3 160 24 83 43 80 36 80 203 l0 148 -160 0 -160 0 0 130 0
130 298 0 299 0 7 -322 7 -323 -74 -71 c-132 -124 -282 -184 -472 -186 -112
-2 -182 12 -270 52 -284 131 -427 481 -387 947 14 171 39 272 96 388 89 180
240 299 416 328 69 12 192 6 264 -13z m1312 9 c162 -30 310 -140 381 -284 31
-61 53 -137 67 -225 l13 -80 -146 0 -146 0 -13 67 c-25 130 -72 206 -154 247
-42 21 -66 26 -127 26 -89 0 -140 -20 -194 -74 -46 -46 -71 -93 -99 -193 -21
-72 -23 -98 -23 -333 0 -218 3 -265 19 -325 49 -183 134 -272 271 -283 165
-13 269 78 308 269 l13 64 147 3 147 3 -6 -33 c-34 -194 -85 -309 -175 -399
-109 -109 -240 -161 -404 -162 -173 -1 -288 45 -406 163 -85 85 -129 164 -176
315 -27 90 -27 91 -27 380 0 267 1 296 22 368 28 103 89 230 140 294 75 94
199 170 316 193 61 12 184 11 252 -1z m924 -349 l0 -340 280 0 280 0 0 340 0
340 140 0 140 0 0 -840 0 -840 -140 0 -140 0 0 365 0 365 -280 0 -280 0 0
-365 0 -365 -140 0 -140 0 0 840 0 840 140 0 140 0 0 -340z"/>
</g>
</svg>
